<?xml version="1.0" encoding="utf-8"?>
<!-- Generator: Adobe Illustrator 16.0.0, SVG Export Plug-In . SVG Version: 6.00 Build 0)  -->
<!DOCTYPE svg PUBLIC "-//W3C//DTD SVG 1.1//EN" "http://www.w3.org/Graphics/SVG/1.1/DTD/svg11.dtd">
<svg version="1.1" xmlns="http://www.w3.org/2000/svg" xmlns:xlink="http://www.w3.org/1999/xlink" x="0px" y="0px"
	 width="26.768px" height="34.791px" viewBox="0 0 26.768 34.791" enable-background="new 0 0 26.768 34.791" xml:space="preserve">
<g id="Layer_1">
	<polygon fill="#FFFFFF" points="16.635,5.912 20.076,0 6.692,0.001 10.133,5.913 	"/>
	<polygon opacity="0.6" fill="#FFFFFF" points="10.133,5.913 6.692,0.001 0,11.591 6.882,11.868 	"/>
	<polygon opacity="0.6" fill="#FFFFFF" points="19.886,11.868 13.379,23.789 13.373,34.791 26.768,11.592 	"/>
	<g>
		<path opacity="0.8" fill="#FFFFFF" d="M23.48,5.898L20.076,0l-3.441,5.912l-6.501,0.001l-3.251,5.955L0,11.591l13.373,23.2
			l0.006-11.002l6.507-11.921l6.882-0.276L23.48,5.898z M13.373,14.894c-1.824,0-3.302-1.479-3.302-3.302
			c0-1.824,1.478-3.302,3.302-3.302s3.302,1.478,3.302,3.302C16.675,13.415,15.197,14.894,13.373,14.894z"/>
	</g>
</g>
<g id="Layer_2">
</g>
</svg>
